<?xml version="1.0" encoding="UTF-8"?>
<svg width="80px" height="70px" viewBox="0 0 80 70" version="1.1" xmlns="http://www.w3.org/2000/svg" xmlns:xlink="http://www.w3.org/1999/xlink">
    <!-- Generator: Sketch 44.1 (41455) - http://www.bohemiancoding.com/sketch -->
    <title>armchair</title>
    <desc>Created with Sketch.</desc>
    <defs></defs>
    <g id="Page-1" stroke="none" stroke-width="1" fill="none" fill-rule="evenodd">
        <g id="armchair" fill-rule="nonzero">
            <path d="M60,70 C58.705625,70 57.65625,68.9552889 57.65625,67.6666667 L57.65625,61.4444444 C57.65625,60.1558222 58.705625,59.1111111 60,59.1111111 C61.294375,59.1111111 62.34375,60.1558222 62.34375,61.4444444 L62.34375,67.6666667 C62.34375,68.9552889 61.2945313,70 60,70 Z" id="Shape" fill="#053B7C"></path>
            <path d="M20,70 C18.705625,70 17.65625,68.9552889 17.65625,67.6666667 L17.65625,61.4444444 C17.65625,60.1558222 18.705625,59.1111111 20,59.1111111 C21.294375,59.1111111 22.34375,60.1558222 22.34375,61.4444444 L22.34375,67.6666667 C22.34375,68.9552889 21.294375,70 20,70 Z" id="Shape" fill="#09489F"></path>
            <path d="M53.28125,0 L26.71875,0 C22.8417188,0 19.6875,3.1402 19.6875,7 L19.6875,42.7777778 C19.6875,44.0664 20.736875,45.1111111 22.03125,45.1111111 L57.96875,45.1111111 C59.263125,45.1111111 60.3125,44.0664 60.3125,42.7777778 L60.3125,7 C60.3125,3.1402 57.1582813,0 53.28125,0 Z" id="Shape" fill="#FFAE39"></path>
            <g id="Group" transform="translate(36.875000, 0.000000)" fill="#FC9D26">
                <path d="M16.40625,0 L3.125,0 L3.125,45.1111111 L21.09375,45.1111111 C22.388125,45.1111111 23.4375,44.0664 23.4375,42.7777778 L23.4375,7 C23.4375,3.1402 20.2832812,0 16.40625,0 Z" id="Shape"></path>
                <ellipse id="Oval" cx="3.125" cy="14.7777778" rx="3.125" ry="3.11111111"></ellipse>
            </g>
            <path d="M67.8125,32.2 C64.8957812,32.2 62.0734375,33.2423778 59.8653125,35.1350222 C58.2014062,36.5613111 56.9626562,38.4013778 56.2675,40.4444444 L23.7323437,40.4444444 C23.0371875,38.4013778 21.7984375,36.5613111 20.1345312,35.1350222 C17.9265625,33.2423778 15.1042188,32.2 12.1875,32.2 C5.46734375,32.2 0,37.6428889 0,44.3333333 C0,50.2257778 4.2409375,55.1506667 9.84375,56.2415778 L9.84375,61.4444444 C9.84375,62.7330667 10.893125,63.7777778 12.1875,63.7777778 L67.8125,63.7777778 C69.106875,63.7777778 70.15625,62.7330667 70.15625,61.4444444 L70.15625,56.2415778 C75.7589062,55.1506667 80,50.2257778 80,44.3333333 C80,37.6428889 74.5328125,32.2 67.8125,32.2 Z" id="Shape" fill="#F8EB76"></path>
            <path d="M67.8125,32.2 C64.8957812,32.2 62.0734375,33.2423778 59.8653125,35.1350222 C58.2014062,36.5613111 56.9626562,38.4013778 56.2675,40.4444444 L40,40.4444444 L40,63.7777778 L67.8125,63.7777778 C69.106875,63.7777778 70.15625,62.7330667 70.15625,61.4444444 L70.15625,56.2415778 C75.7589062,55.1506667 80,50.2257778 80,44.3333333 C80,37.6428889 74.5328125,32.2 67.8125,32.2 Z" id="Shape" fill="#FAD557"></path>
            <path d="M40,11.6666667 L40,17.8888889 C41.7259375,17.8888889 43.125,16.4960444 43.125,14.7777778 C43.125,13.0595111 41.7259375,11.6666667 40,11.6666667 Z" id="Shape" fill="#F88D13"></path>
        </g>
    </g>
</svg>