<?xml version="1.0" encoding="UTF-8"?>
<svg width="17px" height="15px" viewBox="0 0 17 15" version="1.1" xmlns="http://www.w3.org/2000/svg" xmlns:xlink="http://www.w3.org/1999/xlink">
    <!-- Generator: Sketch 44.1 (41455) - http://www.bohemiancoding.com/sketch -->
    <title>armchair</title>
    <desc>Created with Sketch.</desc>
    <defs></defs>
    <g id="Page-1" stroke="none" stroke-width="1" fill="none" fill-rule="evenodd">
        <g id="armchair" fill-rule="nonzero" fill="#FFFFFF">
            <path d="M11.3001949,0 L5.66669981,0 C4.84443665,0 4.17547173,0.6729 4.17547173,1.5 L4.17547173,6.27606667 C4.81669981,6.5961 5.32239181,7.0853 5.66464522,7.66666667 L11.3022495,7.66666667 C11.6445029,7.08533333 12.1500624,6.59616667 12.791423,6.27606667 L12.791423,1.5 C12.791423,0.672933333 12.1224581,0 11.3001949,0 Z M8.48346394,3.83333333 C8.11741715,3.83333333 7.82069591,3.53486667 7.82069591,3.16666667 C7.82069591,2.79846667 8.11741715,2.5 8.48346394,2.5 C8.84951072,2.5 9.14623197,2.79846667 9.14623197,3.16666667 C9.14623197,3.53486667 8.84951072,3.83333333 8.48346394,3.83333333 Z" id="Shape"></path>
            <path d="M14.3820994,6.9 C13.2661637,6.9 12.2866589,7.61826667 11.9335692,8.66666667 L5.03332554,8.66666667 C4.67953996,7.6162 3.69844444,6.9 2.58479532,6.9 C1.15954581,6.9 0,8.06633333 0,9.5 C0,10.7626667 0.899442495,11.818 2.0877193,12.0517667 L2.0877193,13.1666667 C2.0877193,13.4428 2.3102768,13.6666667 2.58479532,13.6666667 L3.74463938,13.6666667 L3.74463938,14.5 C3.74463938,14.7761333 3.96719688,15 4.2417154,15 C4.51623392,15 4.73879142,14.7761333 4.73879142,14.5 L4.73879142,13.6666667 L12.2281033,13.6666667 L12.2281033,14.5 C12.2281033,14.7761333 12.4506608,15 12.7251793,15 C12.9996979,15 13.2222554,14.7761333 13.2222554,14.5 L13.2222554,13.6666667 L14.3820994,13.6666667 C14.6566179,13.6666667 14.8791754,13.4428 14.8791754,13.1666667 L14.8791754,12.0517667 C16.0674191,11.818 16.9668947,10.7626667 16.9668947,9.5 C16.9668947,8.06633333 15.8073821,6.9 14.3820994,6.9 Z" id="Shape"></path>
        </g>
    </g>
</svg>