<?xml version="1.0" encoding="UTF-8"?>
<svg width="50px" height="50px" viewBox="0 0 50 50" version="1.1" xmlns="http://www.w3.org/2000/svg" xmlns:xlink="http://www.w3.org/1999/xlink">
    <!-- Generator: Sketch 44.1 (41455) - http://www.bohemiancoding.com/sketch -->
    <title>chevron-sign-to-right</title>
    <desc>Created with Sketch.</desc>
    <defs></defs>
    <g id="Page-1" stroke="none" stroke-width="1" fill="none" fill-rule="evenodd">
        <g id="chevron-sign-to-right" transform="translate(25.000000, 25.000000) scale(-1, 1) translate(-25.000000, -25.000000) " fill-rule="nonzero" fill="#FFFFFF">
            <path d="M46.5982916,12.4376993 C44.3650342,8.61173121 41.3357631,5.58246014 37.5096811,3.34931663 C33.6829157,1.11628702 29.505467,0 24.9741458,0 C20.4432802,0 16.2645786,1.11628702 12.4384966,3.34931663 C8.61218679,5.58211845 5.58291572,8.61138952 3.34965831,12.4376993 C1.11628702,16.2642369 0,20.4429385 0,24.9734624 C0,29.5042141 1.1166287,33.6822323 3.34931663,37.5089977 C5.58246014,41.3349658 8.61173121,44.3642369 12.438041,46.5976082 C16.2645786,48.8305239 20.4429385,49.9469248 24.9736902,49.9469248 C29.5044419,49.9469248 33.6832574,48.8305239 37.5095672,46.5976082 C41.3356492,44.3650342 44.3648064,41.3349658 46.597836,37.5089977 C48.8305239,33.682574 49.946697,29.5039863 49.946697,24.9734624 C49.9468109,20.4424829 48.8305239,16.2636674 46.5982916,12.4376993 Z M38.0788155,26.4363326 L23.3154897,41.2 C22.9035308,41.6115034 22.4161731,41.8182232 21.8522779,41.8182232 C21.2882688,41.8182232 20.8004556,41.6116173 20.3887244,41.2 L17.0719818,37.8822323 C16.6600228,37.4707289 16.4539863,36.9826879 16.4539863,36.4190205 C16.4539863,35.8562642 16.6600228,35.3675399 17.0719818,34.9558087 L27.0552392,24.9733485 L17.0715262,14.9904328 C16.6595672,14.5790433 16.4535308,14.0908884 16.4535308,13.5274487 C16.4535308,12.9637813 16.6595672,12.476082 17.0715262,12.0642369 L20.3882688,8.74646925 C20.8004556,8.33473804 21.2878132,8.12870159 21.8518223,8.12870159 C22.4156036,8.12870159 22.9034169,8.33473804 23.3153759,8.74646925 L38.0787016,23.5096811 C38.490205,23.9212984 38.6960137,24.4092255 38.6960137,24.9728929 C38.6961276,25.5367882 38.4903189,26.0248292 38.0788155,26.4363326 Z" id="Shape"></path>
        </g>
    </g>
</svg>