<?xml version="1.0" encoding="UTF-8"?>
<svg width="25px" height="12px" viewBox="0 0 25 12" version="1.1" xmlns="http://www.w3.org/2000/svg" xmlns:xlink="http://www.w3.org/1999/xlink">
    <!-- Generator: Sketch 48.1 (47250) - http://www.bohemiancoding.com/sketch -->
    <title>decree</title>
    <desc>Created with Sketch.</desc>
    <defs></defs>
    <g id="Page-1" stroke="none" stroke-width="1" fill="none" fill-rule="evenodd">
        <g id="decree" fill-rule="nonzero">
            <path d="M23.4202742,1.72887097 L17.085629,1.72887097 L17.085629,1.30132258 C17.085629,0.593612903 16.5119032,0.0198870968 15.8041935,0.0198870968 L13.0353871,0.0198870968 C12.0855484,0.0198870968 11.1627581,0.336483871 10.4129516,0.919645161 L8.7375,2.22280645 C8.43759677,2.45608065 8.0685,2.58270968 7.68856452,2.58270968 L5.12564516,2.58270968 L5.12564516,11.5530968 L6.66130645,11.5530968 C7.29633871,11.5530968 7.93040323,11.6055484 8.55682258,11.7099194 L9.2373871,11.8232903 C9.86433871,11.9277097 10.4988387,11.9802097 11.1344516,11.9802097 L15.2320645,11.9802097 C15.9259355,11.9802097 16.5479032,11.4605806 16.5842419,10.7676774 C16.6229516,10.0286613 16.0351452,9.4173871 15.3046452,9.4173871 L16.0863871,9.4173871 C16.7802581,9.4173871 17.4022258,8.89775806 17.4385645,8.20485484 C17.4772742,7.46583871 16.8894677,6.85456452 16.1589677,6.85456452 L17.0132419,6.85456452 C17.7071129,6.85456452 18.3290806,6.33493548 18.3654194,5.64203226 C18.404129,4.90301613 17.8163226,4.29174194 17.0858226,4.29174194 L23.4929516,4.29174194 C24.2234032,4.29174194 24.8111613,3.68056452 24.7725484,2.94159677 C24.7361613,2.24854839 24.1141935,1.72887097 23.4202742,1.72887097 Z" id="Shape" fill="#F2592A"></path>
            <rect id="Rectangle-path" fill="#6A17EB" x="5.12569355" y="2.58295161" width="1" height="8.96995161"></rect>
            <path d="M4.69853226,11.9798226 L0.42716129,11.9798226 C0.191274194,11.9798226 0,11.7885484 0,11.5526613 L0,2.58270968 C0,2.34682258 0.191274194,2.15554839 0.42716129,2.15554839 L4.69858065,2.15554839 C4.93446774,2.15554839 5.12574194,2.34682258 5.12574194,2.58270968 L5.12574194,11.5526613 C5.12569355,11.7885968 4.93441935,11.9798226 4.69853226,11.9798226 Z" id="Shape" fill="#FCB040"></path>
            <circle id="Oval" fill="#EFF2FA" cx="2.56287097" cy="9.84435484" r="1"></circle>
        </g>
    </g>
</svg>