<?xml version="1.0" encoding="UTF-8"?>
<svg width="10px" height="15px" viewBox="0 0 10 15" version="1.1" xmlns="http://www.w3.org/2000/svg" xmlns:xlink="http://www.w3.org/1999/xlink">
    <!-- Generator: Sketch 44.1 (41455) - http://www.bohemiancoding.com/sketch -->
    <title>dress-of-vintage-black-design-style</title>
    <desc>Created with Sketch.</desc>
    <defs></defs>
    <g id="Page-1" stroke="none" stroke-width="1" fill="none" fill-rule="evenodd">
        <g id="dress-of-vintage-black-design-style" fill-rule="nonzero" fill="#FFFFFF">
            <path d="M8.78388704,14.33625 C9.77415282,14.0792962 9.7038206,14.2316912 9.98501661,13.8792227 C9.98501661,13.8792227 7.33880399,6.98032563 7.29860465,6.79670168 C7.2654485,6.64534664 7.05963455,6.0415021 6.9210299,5.82696429 C6.22325581,6.12910714 5.58285714,6.23561975 5.03275748,6.23561975 C4.06837209,6.23561975 3.37980066,5.9162395 3.12996678,5.77997899 C2.99401993,5.93013655 2.75312292,6.63170168 2.71681063,6.79670168 C2.67667774,6.98032563 0.0305315615,13.8792227 0.0305315615,13.8792227 C0.311328904,14.2316912 0.241295681,14.0792962 1.23156146,14.33625 C2.22182724,14.5933613 1.31524917,14.4409349 1.70644518,14.6218172 C2.09787375,14.8025105 2.51936877,14.6691492 2.51936877,14.6691492 C3.32219269,14.6407563 2.87066445,14.6976996 3.05119601,14.7929307 C3.23192691,14.8881303 3.73365449,14.8501261 3.73365449,14.8501261 C3.71368771,14.7548004 3.8541196,14.7358298 3.8541196,14.7358298 C4.73727575,14.7264706 4.40604651,14.8596113 4.46627907,14.8977416 C4.52651163,14.9356197 5.00774086,14.9832353 5.00774086,14.9832353 C5.00774086,14.9832353 5.48880399,14.9356197 5.5492691,14.8977416 C5.60933555,14.8596113 5.2782392,14.72625 6.1613289,14.7358298 C6.1613289,14.7358298 6.30189369,14.7548004 6.28179402,14.8501261 C6.28179402,14.8501261 6.78348837,14.8881303 6.9644186,14.7929307 C7.14518272,14.6977311 6.69335548,14.6407563 7.4961794,14.6691492 C7.4961794,14.6691492 7.91740864,14.8025105 8.30923588,14.6218172 C8.70039867,14.4409349 7.7941196,14.5931092 8.78388704,14.33625 Z" id="Shape"></path>
            <path d="M2.00079734,1.70098739 C1.86033223,2.2722479 1.23152824,3.42731092 1.23152824,3.42731092 C1.4323588,3.6177416 2.76551495,4.01095588 2.77026578,3.96047269 C2.78348837,3.82093487 2.87724252,3.43991597 2.87724252,3.43991597 C3.06990033,4.19130252 3.14239203,5.21659664 3.16375415,5.59780462 C3.39289037,5.73393908 4.86996678,6.5252521 6.84754153,5.66832983 C6.86299003,5.36385504 6.93179402,4.24465336 7.13803987,3.43991597 C7.13803987,3.43991597 7.2317608,3.82065126 7.24508306,3.96047269 C7.24990033,4.01092437 8.58322259,3.6177416 8.78388704,3.42731092 C8.78388704,3.42731092 8.15478405,2.2722479 8.01421927,1.70098739 C7.8817608,1.16177521 7.78601329,1.05207983 7.32551495,0.91342437 C7.44521595,1.08882353 7.53292359,1.31930672 7.54465116,1.63323529 C7.55116279,1.80841387 7.54774086,1.89743697 7.48860465,1.95589286 C7.45900332,1.98485294 7.41950166,2.00089286 7.37704319,2.00089286 C7.31099668,2.00089286 7.26186047,1.96622899 7.19408638,1.91817227 C7.09372093,1.84676471 6.94192691,1.73936975 6.69750831,1.71296218 C6.61827243,1.70426471 6.54973422,1.69660714 6.49112957,1.68986345 C6.63,2.16072479 6.76315615,2.53723739 6.81385382,2.59796218 C6.84598007,2.63615546 6.8561794,2.68509454 6.84209302,2.73271008 C6.8241196,2.79267857 6.7876412,2.91397059 5.8779402,3.23429622 C5.99936877,3.48523109 6.07445183,3.67591387 6.09335548,3.72485294 C6.09388704,3.72668067 6.09468439,3.72813025 6.09508306,3.72986345 L6.09508306,3.72986345 C6.11837209,3.79408613 6.08272425,3.86417017 6.01495017,3.88663866 C6.00069767,3.89130252 5.9861794,3.89363445 5.97166113,3.89363445 C5.91813953,3.89363445 5.8679402,3.8619958 5.84893688,3.81151261 L5.84893688,3.81151261 C5.84893688,3.8110084 5.84893688,3.81056723 5.84837209,3.81006303 C5.83920266,3.7864916 5.75249169,3.57920168 5.54724252,3.55963235 C5.33767442,3.53981092 3.59056478,3.02209034 3.47036545,2.75142857 C3.44681063,2.69877101 3.45498339,2.64138655 3.49152824,2.59780462 C3.54232558,2.53698529 3.67538206,2.16047269 3.81405316,1.68964286 C3.75561462,1.69644958 3.68710963,1.70429622 3.60803987,1.7127416 C3.3633887,1.73940126 3.21159468,1.84679622 3.11096346,1.91769958 C3.04312292,1.96581933 2.99405316,2.00035714 2.92810631,2.00035714 C2.8855814,2.00035714 2.84604651,1.9842542 2.81647841,1.95538866 C2.75707641,1.89693277 2.75362126,1.80813025 2.76039867,1.63273109 C2.77578073,1.22722689 2.9176412,0.962111345 3.09166113,0.773823529 C2.98807309,0.816712185 2.88089701,0.856796218 2.77033223,0.888434874 C2.23504983,1.04095588 2.14139535,1.12985294 2.00079734,1.70098739 Z M5.50335548,3.76994748 C5.60318937,3.76994748 5.68401993,3.84668067 5.68401993,3.94131303 C5.68401993,4.03616597 5.60318937,4.1127416 5.50335548,4.1127416 C5.40362126,4.1127416 5.32255814,4.03613445 5.32255814,3.94131303 C5.32282392,3.84668067 5.40362126,3.76994748 5.50335548,3.76994748 Z M5.50335548,4.83592437 C5.60318937,4.83592437 5.68401993,4.91265756 5.68401993,5.00735294 C5.68401993,5.10204832 5.60318937,5.17878151 5.50335548,5.17878151 C5.40362126,5.17878151 5.32255814,5.10204832 5.32255814,5.00735294 C5.32255814,4.91265756 5.40362126,4.83592437 5.50335548,4.83592437 Z M4.37940199,3.76994748 C4.47940199,3.76994748 4.56013289,3.84668067 4.56013289,3.94131303 C4.56013289,4.03616597 4.47936877,4.1127416 4.37940199,4.1127416 C4.27963455,4.1127416 4.19873754,4.03613445 4.19873754,3.94131303 C4.19873754,3.84668067 4.27963455,3.76994748 4.37940199,3.76994748 Z M4.37940199,4.83592437 C4.47940199,4.83592437 4.56013289,4.91265756 4.56013289,5.00735294 C4.56013289,5.10204832 4.47936877,5.17878151 4.37940199,5.17878151 C4.27963455,5.17878151 4.19873754,5.10204832 4.19873754,5.00735294 C4.19873754,4.91265756 4.27963455,4.83592437 4.37940199,4.83592437 Z" id="Shape"></path>
            <path d="M6.71222591,2.67494748 C6.5986711,2.54038866 6.34186047,1.64363445 6.31335548,1.54206933 C6.26009967,1.53359244 6.27405316,1.53217437 6.29099668,1.53217437 C6.300299,1.53217437 6.31083056,1.53261555 6.31083056,1.53261555 C6.31083056,1.53261555 6.31162791,1.53576681 6.31335548,1.54210084 C6.36475083,1.54991597 6.47847176,1.56431723 6.71222591,1.58977941 C7.11980066,1.63396008 7.30511628,1.87670168 7.37727575,1.87670168 C7.41362126,1.87670168 7.4213289,1.81569328 7.41468439,1.63726891 C7.40139535,1.28177521 7.28418605,1.04177521 7.11900332,0.86092437 C7.03671096,0.770703782 6.94299003,0.693970588 6.84262458,0.626911765 C6.54129568,0.425766807 6.31083056,0 6.31083056,0 C6.31083056,0 6.24053156,1.27553571 5.52810631,1.88483193 C5.4254485,1.97240546 5.32973422,2.07677521 5.23774086,2.18609244 C5.26249169,2.21735294 5.28647841,2.2497479 5.310299,2.28163866 C5.51813953,2.5599895 5.69162791,2.86304622 5.82209302,3.12157563 C6.31697674,2.94664916 6.77481728,2.74969538 6.71222591,2.67494748 Z" id="Shape"></path>
            <path d="M5.69853821,3.1647479 C5.57578073,2.92367647 5.41534884,2.64305672 5.22601329,2.38430672 C5.20229236,2.35197479 5.17853821,2.31970588 5.15385382,2.28806723 C5.14046512,2.27101891 5.12671096,2.25447479 5.11302326,2.23755252 C5.09956811,2.2207563 5.08538206,2.20421218 5.07169435,2.18766807 C4.97870432,2.07705882 4.88063123,1.97363445 4.77740864,1.88508403 C4.72607973,1.84134454 4.67880399,1.79303571 4.63401993,1.74277311 C4.31322259,1.38488445 4.15172757,0.88960084 4.07172757,0.517563025 C4.00730897,0.219233193 3.99445183,0 3.99445183,0 C3.99445183,0 3.82315615,0.315252101 3.58325581,0.531460084 C3.54451827,0.56625 3.5044186,0.599023109 3.46262458,0.626848739 C3.16146179,0.82802521 2.91056478,1.10413866 2.89046512,1.63720588 C2.88372093,1.81537815 2.89146179,1.87663866 2.92800664,1.87663866 C3.00023256,1.87663866 3.1854485,1.63389706 3.59302326,1.58971639 C3.82674419,1.5642542 3.94046512,1.54985294 3.99189369,1.54203782 C3.99368771,1.53570378 3.9944186,1.53255252 3.9944186,1.53255252 C3.9944186,1.53255252 4.0048505,1.53211134 4.01431894,1.53211134 C4.03122924,1.53211134 4.0451495,1.53356092 3.99189369,1.5420063 C3.96318937,1.64335084 3.70651163,2.54010504 3.59302326,2.67488445 C3.51225914,2.77093487 4.29026578,3.06781513 4.90182724,3.2617437 C4.92112957,3.26785714 4.94036545,3.27419118 4.95920266,3.28005252 C5.23398671,3.36560924 5.46754153,3.42778361 5.55993355,3.43663866 C5.84418605,3.46355042 5.95827243,3.73619748 5.97049834,3.76685924 C5.96023256,3.74117647 5.88342193,3.54352941 5.75348837,3.27709034 C5.7448505,3.25884454 5.73511628,3.23968487 5.72581395,3.22061975 C5.71664452,3.2019958 5.7082392,3.18412815 5.69853821,3.1647479 Z" id="Shape"></path>
        </g>
    </g>
</svg>