<?xml version="1.0" encoding="UTF-8"?>
<svg width="322px" height="300px" viewBox="0 0 322 300" version="1.1" xmlns="http://www.w3.org/2000/svg" xmlns:xlink="http://www.w3.org/1999/xlink">
    <!-- Generator: Sketch 48.1 (47250) - http://www.bohemiancoding.com/sketch -->
    <title>warning</title>
    <desc>Created with Sketch.</desc>
    <defs></defs>
    <g id="Page-1" stroke="none" stroke-width="1" fill="none" fill-rule="evenodd">
        <g id="warning" fill-rule="nonzero">
            <path d="M307.142259,234.06841 L193.619247,29.5914226 C186.841004,17.3529289 174.60251,10.0104603 160.669456,10.0104603 C146.736402,10.0104603 134.497908,17.3529289 127.719665,29.5914226 L14.3849372,233.880126 L14.1966527,234.06841 C7.60732218,245.930335 7.98263598,259.863389 14.7621339,271.537029 C21.5403766,283.023013 33.7788703,289.98954 47.1464435,289.98954 L274.192469,289.98954 C287.560042,289.98954 299.799163,283.023013 306.576778,271.537029 C313.355649,259.863389 313.73159,245.930335 307.142259,234.06841 Z" id="Shape" fill="#FEDB41"></path>
            <path d="M306.576778,271.537029 C299.798536,283.023013 287.560042,289.98954 274.192469,289.98954 L160.669456,289.98954 L160.669456,10.0104603 C174.60251,10.0104603 186.841004,17.3529289 193.619247,29.5914226 L307.142259,234.06841 C313.73159,245.930335 313.355649,259.863389 306.576778,271.537029 Z" id="Shape" fill="#FCBF29"></path>
            <g id="Group" transform="translate(141.841004, 54.602510)" fill="#57555C">
                <path d="M37.6569038,178.901674 C37.6569038,189.257322 29.1841004,197.730126 18.8284519,197.730126 C8.47280335,197.730126 0,189.257322 0,178.901674 C0,168.546025 8.47280335,160.073222 18.8284519,160.073222 C29.1841004,160.073222 37.6569038,168.546025 37.6569038,178.901674 Z" id="Shape"></path>
                <path d="M37.6569038,18.8598326 L37.6569038,113.002092 C37.6569038,123.357741 29.1841004,131.830544 18.8284519,131.830544 C8.47280335,131.830544 0,123.357741 0,113.002092 L0,18.8598326 C0,8.5041841 8.47280335,0.0313807531 18.8284519,0.0313807531 C29.1841004,0.0313807531 37.6569038,8.5041841 37.6569038,18.8598326 Z" id="Shape"></path>
            </g>
            <path d="M315.426778,229.549582 L201.903766,24.8843096 C193.430962,9.82154812 177.991004,0.59623431 160.669456,0.59623431 C143.347908,0.59623431 127.90795,9.82217573 119.435146,24.8843096 L5.91213389,229.549582 C-2.18410042,244.236402 -1.99518828,261.746862 6.66589958,276.243515 C15.1380753,290.74205 30.3891213,299.403766 47.1464435,299.403766 L274.192469,299.403766 C290.949791,299.403766 306.200837,290.74205 314.673013,276.244142 C323.334728,261.746862 323.523013,244.236402 315.426778,229.549582 Z M298.480544,266.642259 C293.39749,275.30272 284.170921,280.575314 274.192469,280.575314 L47.1464435,280.575314 C37.1679916,280.575314 27.940795,275.30272 22.8583682,266.642259 C20.2223849,262.122176 18.9037657,257.228033 18.9037657,252.332636 C18.9037657,247.625523 20.0334728,242.91841 22.4811715,238.587238 L136.004184,34.110251 C141.088494,24.8843096 150.313808,19.4246862 160.669456,19.4246862 C171.025105,19.4246862 180.250418,24.8843096 185.334728,34.110251 L298.857741,238.587238 C303.753138,247.437238 303.564854,257.981172 298.480544,266.642259 Z" id="Shape" fill="#FD4E26"></path>
            <g id="Group" transform="translate(160.669456, 54.602510)" fill="#3C3A41">
                <path d="M18.8284519,178.901674 C18.8284519,189.257322 10.3556485,197.730126 0,197.730126 L0,160.073222 C10.3556485,160.073222 18.8284519,168.546025 18.8284519,178.901674 Z" id="Shape"></path>
                <path d="M18.8284519,18.8598326 L18.8284519,113.002092 C18.8284519,123.357741 10.3556485,131.830544 0,131.830544 L0,0.0313807531 C10.3556485,0.0313807531 18.8284519,8.5041841 18.8284519,18.8598326 Z" id="Shape"></path>
            </g>
            <path d="M314.673013,276.244142 C306.200837,290.742678 290.950418,299.403766 274.192469,299.403766 L160.669456,299.403766 L160.669456,280.575314 L274.192469,280.575314 C284.170921,280.575314 293.398117,275.30272 298.480544,266.642259 C303.564854,257.980544 303.753138,247.436611 298.857741,238.586611 L185.334728,34.110251 C180.250418,24.8843096 171.025105,19.4246862 160.669456,19.4246862 L160.669456,0.59623431 C177.991004,0.59623431 193.430962,9.82217573 201.903766,24.8843096 L315.426778,229.549582 C323.523013,244.236402 323.334728,261.746862 314.673013,276.244142 Z" id="Shape" fill="#FD3018"></path>
        </g>
    </g>
</svg>