<?xml version="1.0" encoding="UTF-8"?>
<svg width="70px" height="70px" viewBox="0 0 70 70" version="1.1" xmlns="http://www.w3.org/2000/svg" xmlns:xlink="http://www.w3.org/1999/xlink">
    <!-- Generator: Sketch 44.1 (41455) - http://www.bohemiancoding.com/sketch -->
    <title>free-delivery</title>
    <desc>Created with Sketch.</desc>
    <defs></defs>
    <g id="Page-1" stroke="none" stroke-width="1" fill="none" fill-rule="evenodd">
        <g id="free-delivery" fill-rule="nonzero">
            <path d="M69.1969141,42.4763281 C69.7212305,40.067207 70,37.5663477 70,35 C70,15.6701562 54.3299805,0 35,0 C15.6701562,0 0,15.6701562 0,35 C0,50.9806445 10.7105469,64.4591992 25.3446484,68.6503125 L69.1969141,42.4763281 Z" id="Shape" fill="#FF9075"></path>
            <path d="M69.1969141,42.4763281 L61.7196289,34.9991797 L46.9658984,34.9991797 L46.9658984,24.3485156 L31.3126953,8.69517578 L9.19337891,52.499043 L25.3446484,68.6503125 C28.4117969,69.5287305 31.6508008,70 35,70 C51.7636328,70 65.7721094,58.2136133 69.1969141,42.4763281 Z" id="Shape" fill="#FF7452"></path>
            <polygon id="Shape" fill="#FFD652" points="46.9657617 24.3483789 35.0633008 24.3483789 35.0633008 48.694707 61.7196289 45.6516211 61.7196289 34.999043 55.6326367 33.0153906"></polygon>
            <path d="M58.9546289,45.6516211 C57.154043,43.7777539 54.62625,42.608125 51.8283008,42.608125 C49.0304883,42.608125 46.5025586,43.7777539 44.7019727,45.6516211 L35.0630273,45.6513477 L39.6282031,52.4991797 L61.7196289,52.4994531 L61.7196289,45.6516211 L58.9546289,45.6516211 Z" id="Shape" fill="#FDBA4C"></path>
            <polygon id="Shape" fill="#F7EDBC" points="39.6266992 19.7832031 39.6266992 42.6077148 16.8005469 45.6512109 27.4529883 19.7838867"></polygon>
            <polygon id="Shape" fill="#FFFFFF" points="9.19337891 19.7832031 9.19337891 42.6077148 24.4093555 45.6512109 24.4093555 19.7832031"></polygon>
            <polygon id="Shape" fill="#CCCCCC" points="39.6282031 42.6077148 9.19337891 42.6077148 9.19337891 45.6512109 25.1716992 49.4555469 39.6282031 45.6510742"></polygon>
            <rect id="Rectangle-path" fill="#B2B2B2" x="9.19283203" y="45.6506641" width="30.4348242" height="6.84783203"></rect>
            <path d="M19.0855273,59.3471484 L14.9768555,52.4993164 L19.0855273,45.6514844 C22.8614258,45.6514844 25.9333594,48.723418 25.9333594,52.4993164 C25.9333594,56.2752148 22.8615625,59.3471484 19.0855273,59.3471484 Z" id="Shape" fill="#383838"></path>
            <path d="M12.2376953,52.4994531 C12.2376953,56.2753516 15.3096289,59.3472852 19.0855273,59.3472852 L19.0855273,45.6513477 C15.3096289,45.6516211 12.2376953,48.7235547 12.2376953,52.4994531 Z" id="Shape" fill="#4C4C4C"></path>
            <path d="M19.0855273,56.3037891 L16.8028711,52.4994531 L19.0855273,48.6951172 C21.1832031,48.6951172 22.8898633,50.4017773 22.8898633,52.4994531 C22.8898633,54.5971289 21.1832031,56.3037891 19.0855273,56.3037891 Z" id="Shape" fill="#CCCCCC"></path>
            <path d="M15.2811914,52.4994531 C15.2811914,54.5971289 16.9878516,56.3037891 19.0855273,56.3037891 L19.0855273,48.6951172 C16.9877148,48.6949805 15.2811914,50.4016406 15.2811914,52.4994531 Z" id="Shape" fill="#FFFFFF"></path>
            <path d="M51.8283008,59.3471484 L47.7196289,52.4993164 L51.8283008,45.6514844 C55.6041992,45.6514844 58.6761328,48.723418 58.6761328,52.4993164 C58.6761328,56.2752148 55.6041992,59.3471484 51.8283008,59.3471484 Z" id="Shape" fill="#383838"></path>
            <path d="M44.980332,52.4994531 C44.980332,56.2753516 48.0522656,59.3472852 51.8281641,59.3472852 L51.8281641,45.6513477 C48.0522656,45.6516211 44.980332,48.7235547 44.980332,52.4994531 Z" id="Shape" fill="#4C4C4C"></path>
            <path d="M51.8283008,56.3033789 L49.5456445,52.499043 L51.8283008,48.694707 C53.9259766,48.694707 55.6326367,50.4013672 55.6326367,52.499043 C55.6326367,54.5968555 53.9259766,56.3033789 51.8283008,56.3033789 Z" id="Shape" fill="#CCCCCC"></path>
            <path d="M48.0239648,52.499043 C48.0239648,54.5967188 49.730625,56.3033789 51.8283008,56.3033789 L51.8283008,48.694707 C49.730625,48.694707 48.0239648,50.4013672 48.0239648,52.499043 Z" id="Shape" fill="#FFFFFF"></path>
            <polygon id="Shape" fill="#D33734" points="21.0715039 14.3945703 24.4569336 29.4526367 28.2612695 33.2569727 28.2612695 14.3945703"></polygon>
            <polygon id="Shape" fill="#E24642" points="24.4531055 14.3945703 20.6525977 14.3945703 20.6525977 33.2569727 24.4569336 29.4526367"></polygon>
            <path d="M25.5389258,8.64636719 C24.7306445,9.45464844 24.3383984,10.5231055 24.3595898,11.5895117 L22.803457,15.6903906 L24.4093555,19.7912695 L29.6980469,16.8313086 L32.5413867,11.6589648 C32.5549219,10.5864063 32.1500977,9.50523438 31.3263672,8.68150391 C29.7186914,7.07369141 27.1273242,7.05796875 25.5389258,8.64636719 Z" id="Shape" fill="#D33734"></path>
            <g id="Group" transform="translate(16.269531, 7.382813)" fill="#E24642">
                <path d="M19.2491797,5.49103516 C20.8569922,7.09884766 20.8727148,9.69007812 19.2843164,11.2786133 C18.4760352,12.0868945 17.4075781,12.4218555 16.3414453,12.4012109 L8.1396875,12.4012109 L16.2717187,4.27615234 C17.3442773,4.26261719 18.4259961,4.66771484 19.2491797,5.49103516 Z" id="Shape"></path>
                <path d="M7.01025391,1.26355469 C7.81853516,2.07183594 8.21078125,3.14029297 8.18958984,4.20669922 L8.13982422,12.408457 L2.85113281,9.44849609 L0.00779296875,4.27615234 C-0.0057421875,3.20359375 0.399082031,2.12242188 1.2228125,1.29869141 C2.83048828,-0.309121094 5.42185547,-0.32484375 7.01025391,1.26355469 Z" id="Shape"></path>
            </g>
            <path d="M13.2998633,12.8738477 C11.6920508,14.4816602 11.6763281,17.0728906 13.2647266,18.6614258 C14.0730078,19.469707 15.1413281,19.804668 16.2075977,19.7840234 L24.4093555,19.7840234 L16.2773242,11.6589648 C15.2047656,11.6454297 14.1230469,12.0505273 13.2998633,12.8738477 Z" id="Shape" fill="#F15D4A"></path>
        </g>
    </g>
</svg>