<?xml version="1.0" encoding="UTF-8"?>
<svg width="100px" height="94px" viewBox="0 0 100 94" version="1.1" xmlns="http://www.w3.org/2000/svg" xmlns:xlink="http://www.w3.org/1999/xlink">
    <!-- Generator: Sketch 51 (57462) - http://www.bohemiancoding.com/sketch -->
    <title>gift</title>
    <desc>Created with Sketch.</desc>
    <defs></defs>
    <g id="Page-1" stroke="none" stroke-width="1" fill="none" fill-rule="evenodd">
        <g id="gift" fill-rule="nonzero">
            <path d="M91.6332033,41.1554687 L8.36679687,41.1554687 C7.49453127,41.1554687 6.7878906,41.8625 6.7878906,42.734375 L6.7878906,91.7251953 C6.7878906,92.5972653 7.49453127,93.3041013 8.36679687,93.3041013 L91.6333987,93.3041013 C92.505664,93.3041013 93.2123047,92.59707 93.2123047,91.7251953 L93.2123047,42.7345703 C93.2121093,41.8623047 92.5052733,41.1554687 91.6332033,41.1554687 Z" id="Shape" fill="#F7434C"></path>
            <path d="M91.6332033,41.1554687 L8.36679687,41.1554687 C7.49453127,41.1554687 6.7878906,41.8625 6.7878906,42.734375 L6.7878906,49.0501953 L93.2123047,49.0501953 L93.2123047,42.734375 C93.2121093,41.8623047 92.5052733,41.1554687 91.6332033,41.1554687 Z" id="Shape" fill="#DB2E37"></path>
            <path d="M58.0664063,41.1554687 L41.9339844,41.1554687 C41.0617187,41.1554687 40.3550781,41.8625 40.3550781,42.734375 L40.3550781,91.7251953 C40.3550781,92.5972653 41.0617187,93.3041013 41.9339844,93.3041013 L58.0664063,93.3041013 C58.9384765,93.3041013 59.6453125,92.59707 59.6453125,91.7251953 L59.6453125,42.7345703 C59.6453125,41.8623047 58.9382813,41.1554687 58.0664063,41.1554687 Z" id="Shape" fill="#FFDB57"></path>
            <path d="M58.0664063,41.1554687 L41.9339844,41.1554687 C41.0617187,41.1554687 40.3550781,41.8625 40.3550781,42.734375 L40.3550781,49.0164063 L59.6453125,49.0164063 L59.6453125,42.734375 C59.6453125,41.8623047 58.9382813,41.1554687 58.0664063,41.1554687 Z" id="Shape" fill="#F5BA3D"></path>
            <path d="M88.5572267,11.9878906 C87.0089847,7.95253907 84.5662107,4.01132813 82.022656,1.44472656 C81.089258,0.503125 79.832422,0.02578125 78.401758,0.0564453125 C73.6611327,0.166796875 65.9361328,6.11660156 55.4414063,17.7404297 C55.1792969,18.0304687 55.0341797,18.4076172 55.0341797,18.7986328 L55.0341797,27.1503906 C55.0341797,28.0224609 55.7408203,28.7292969 56.6130859,28.7292969 L80.9007813,28.7292969 C86.3125,28.7292969 88.546094,26.0964844 89.4666013,23.8876953 C90.6947267,20.9433594 90.3714847,16.7169922 88.5572267,11.9878906 Z" id="Shape" fill="#FFDB57"></path>
            <path d="M89.4611327,14.7390625 C89.416992,14.5769531 89.3472653,14.4228515 89.254492,14.2828125 C86.8703127,10.6779297 81.7185547,12.0267578 77.8167967,13.7929687 C66.4810547,18.9242187 61.7998047,25.9923828 61.6060547,26.290625 C61.290625,26.7763672 61.2664063,27.3953125 61.5427735,27.9041015 C61.8189453,28.4128906 62.3513672,28.7294922 62.9302735,28.7294922 L80.9013673,28.7294922 C84.344922,28.7294922 86.8986327,27.6724609 88.4916013,25.5878906 C90.3839847,23.1113281 90.7191407,19.3597656 89.4611327,14.7390625 Z" id="Shape" fill="#EF9325"></path>
            <path d="M44.5583985,17.740625 C34.0636719,6.11679687 26.3386719,0.166992187 21.5980469,0.056640625 C20.1636719,0.02578125 18.9103515,0.503320313 17.9771485,1.44492187 C15.4337891,4.01132813 12.9908203,7.9527344 11.4427735,11.9880859 C9.6285156,16.7171875 9.30527347,20.9433594 10.5326172,23.8880859 C11.4533203,26.096875 13.6867187,28.7296875 19.0986328,28.7296875 L43.3863281,28.7296875 C44.2585937,28.7296875 44.9652344,28.0226563 44.9652344,27.1507813 L44.9652344,18.7988281 C44.9654297,18.4078125 44.8207031,18.0306641 44.5583985,17.740625 Z" id="Shape" fill="#FFDB57"></path>
            <path d="M38.3941406,26.290625 C38.2003906,25.9923828 33.5191406,18.9240235 22.1833985,13.7929687 C18.28125,12.0267578 13.1296875,10.6785156 10.7455078,14.2826172 C10.6529297,14.4228515 10.5832031,14.5767578 10.5390625,14.7390625 C9.28066407,19.3597656 9.61621093,23.1113281 11.5085937,25.5876953 C13.1013672,27.6722656 15.6550781,28.7292969 19.0988281,28.7292969 L37.0699219,28.7292969 C37.6488281,28.7292969 38.18125,28.4126953 38.4574219,27.9039063 C38.7335937,27.3953125 38.709375,26.7763672 38.3941406,26.290625 Z" id="Shape" fill="#EF9325"></path>
            <path d="M56.6134765,15.6591797 L43.3865235,15.6591797 C42.5142578,15.6591797 41.8076172,16.3662109 41.8076172,17.2380859 L41.8076172,27.1507813 C41.8076172,28.0228515 42.5142578,28.7296875 43.3865235,28.7296875 L56.6134765,28.7296875 C57.4857422,28.7296875 58.1923828,28.0226563 58.1923828,27.1507813 L58.1923828,17.2380859 C58.1923828,16.3660156 57.4857422,15.6591797 56.6134765,15.6591797 Z" id="Shape" fill="#F5BA3D"></path>
            <path d="M98.421094,25.5748047 L1.57890625,25.5748047 C0.706640627,25.5748047 0,26.2818359 0,27.1537109 L0,42.734375 C0,43.6064453 0.706640627,44.3132813 1.57890625,44.3132813 L98.421094,44.3132813 C99.2933593,44.3132813 100,43.60625 100,42.734375 L100,27.1537109 C100,26.2816406 99.2933593,25.5748047 98.421094,25.5748047 Z" id="Shape" fill="#F7434C"></path>
            <rect id="Rectangle-path" fill="#FFDB57" x="37.8714844" y="25.5742187" width="24.2568359" height="18.7388672"></rect>
        </g>
    </g>
</svg>