<?xml version="1.0" encoding="UTF-8"?>
<svg width="20px" height="20px" viewBox="0 0 20 20" version="1.1" xmlns="http://www.w3.org/2000/svg" xmlns:xlink="http://www.w3.org/1999/xlink">
    <!-- Generator: Sketch 48.1 (47250) - http://www.bohemiancoding.com/sketch -->
    <title>giftbox</title>
    <desc>Created with Sketch.</desc>
    <defs></defs>
    <g id="Page-1" stroke="none" stroke-width="1" fill="none" fill-rule="evenodd">
        <g id="giftbox" fill="#D80027" fill-rule="nonzero">
            <path d="M18.6592203,3.89554687 L17.2062378,3.89554687 C17.3978947,3.59164062 17.5243665,3.25050781 17.5604288,2.88972656 C17.6756335,1.73671875 17.0695906,0.703125 16.0378168,0.244882813 C15.0894347,-0.176328125 14.0236647,-0.004140625 13.2562183,0.69328125 L11.4215205,2.35929688 C11.0642105,1.96773438 10.5505653,1.72164063 9.98050682,1.72164063 C9.4094347,1.72164063 8.89497076,1.96851562 8.53758285,2.36128906 L6.70054581,0.693085938 C5.93185185,-0.0043359375 4.86651072,-0.175859375 3.9185575,0.245117188 C2.88705653,0.703398438 2.28089669,1.73734375 2.39645224,2.8903125 C2.43259259,3.25082031 2.55898635,3.59179688 2.75060429,3.89554687 L1.30179337,3.89554687 C0.582807018,3.89554687 0,4.47953125 0,5.19988281 L0,7.15640625 C0,7.5165625 0.291423002,7.80859375 0.650916179,7.80859375 L19.3101365,7.80859375 C19.6695906,7.80859375 19.9610526,7.51660156 19.9610526,7.15640625 L19.9610526,5.19988281 C19.9610136,4.47953125 19.3782066,3.89554687 18.6592203,3.89554687 Z M8.02779727,3.67816406 L8.02779727,3.89554687 L4.96569201,3.89554687 C4.15664717,3.89554687 3.51992203,3.13984375 3.7219883,2.29585938 C3.81099415,1.92417969 4.07875244,1.60734375 4.42506823,1.44695313 C4.90062378,1.22671875 5.42740741,1.29742188 5.82682261,1.65964844 L8.02834308,3.65894531 C8.02822612,3.66539062 8.02779727,3.67171875 8.02779727,3.67816406 Z M16.2687719,2.7165625 C16.2202729,3.39441406 15.6091618,3.895625 14.9309162,3.895625 L11.9332164,3.895625 L11.9332164,3.67824219 C11.9332164,3.67054688 11.9327485,3.66292969 11.9326706,3.65523438 C12.431384,3.20226562 13.5132943,2.21976563 14.100078,1.68683594 C14.4335673,1.38398438 14.9001949,1.24261719 15.33154,1.37152344 C15.9505263,1.55652344 16.3140351,2.08394531 16.2687719,2.7165625 Z" id="Shape"></path>
            <path d="M1.30179337,9.11292969 L1.30179337,18.6781641 C1.30179337,19.3985547 1.88460039,19.9825 2.60358674,19.9825 L8.67867446,19.9825 L8.67867446,9.11292969 L1.30179337,9.11292969 Z" id="Shape"></path>
            <path d="M11.2823002,9.11292969 L11.2823002,19.9825 L17.3573879,19.9825 C18.0763743,19.9825 18.6591813,19.3985547 18.6591813,18.6781641 L18.6591813,9.11292969 L11.2823002,9.11292969 Z" id="Shape"></path>
        </g>
    </g>
</svg>