<?xml version="1.0" encoding="UTF-8"?>
<svg width="16px" height="15px" viewBox="0 0 16 15" version="1.1" xmlns="http://www.w3.org/2000/svg" xmlns:xlink="http://www.w3.org/1999/xlink">
    <!-- Generator: Sketch 48.1 (47250) - http://www.bohemiancoding.com/sketch -->
    <title>goods</title>
    <desc>Created with Sketch.</desc>
    <defs></defs>
    <g id="Page-1" stroke="none" stroke-width="1" fill="none" fill-rule="evenodd">
        <g id="goods" fill="#FFFFFF" fill-rule="nonzero">
            <path d="M7.96251553,5.5928882 L8.71757764,6.34838509 C8.74031056,6.37111801 8.77114907,6.38391304 8.80329193,6.38391304 C8.83543478,6.38391304 8.86624224,6.37111801 8.88900621,6.34838509 L9.72347826,5.51322981 C9.89074534,5.34754658 10.1125776,5.25639752 10.3473913,5.25639752 C10.5823602,5.25639752 10.8042547,5.34754658 10.9737267,5.51590062 L11.8063665,6.3484472 C11.8290373,6.37114907 11.8599068,6.3839441 11.8920186,6.38391304 C11.9241615,6.38391304 11.9549689,6.37114907 11.9777329,6.34841615 L12.8254037,5.50024845 C12.9926398,5.33456522 13.2142857,5.24341615 13.4492857,5.24341615 C13.687764,5.24341615 13.8784783,5.35018634 13.9898758,5.43226708 C14.0174224,5.45254658 14.0526087,5.45931677 14.0856832,5.45065217 C14.1187578,5.44201863 14.146118,5.41885093 14.1601863,5.38773292 L14.5044099,4.62689441 C14.5881988,4.44192547 14.5950932,4.23139752 14.5233851,4.04152174 C14.452236,3.85145963 14.3079814,3.69770186 14.1232298,3.61406832 L9.76981366,1.64381988 C9.38484472,1.46956522 8.93149068,1.64037267 8.75698758,2.02540373 L7.29111801,5.26338509 C7.28416149,5.27872671 7.28546584,5.29652174 7.29459627,5.31065217 C7.30372671,5.32478261 7.31937888,5.33335404 7.33624224,5.33335404 C7.57121118,5.33335404 7.79301242,5.42475155 7.96251553,5.5928882 Z" id="Shape"></path>
            <path d="M1.41049689,5.24428571 C1.4252795,5.29496894 1.47121118,5.33034161 1.52397516,5.3315528 C1.64093168,5.3342236 1.86121118,5.37263975 2.09434783,5.59313665 C2.24456522,5.73518634 2.66624224,6.16214286 2.84841615,6.34708075 C2.8710559,6.37009317 2.90201863,6.38310559 2.93428571,6.38322981 C2.9665528,6.38335404 2.99757764,6.37055901 3.02040373,6.34773292 L3.7778882,5.59018634 C3.94493789,5.42450311 4.16680124,5.33335404 4.40161491,5.33335404 C4.63658385,5.33335404 4.8584472,5.42450311 5.02795031,5.59285714 L5.78335404,6.34875776 C5.83055901,6.39596273 5.90692547,6.39611801 5.95434783,6.34916149 C6.14031056,6.16481366 6.57602484,5.73307453 6.72232919,5.58968944 C6.75217391,5.56046584 6.7634472,5.51714286 6.75173913,5.47708075 L5.99304348,2.87493789 C5.91947205,2.62416149 5.65720497,2.48012422 5.40583851,2.55304348 C5.00217391,2.67096273 4.58006211,2.43900621 4.46158385,2.03540373 L4.25543478,1.32822981 L1.76729814,2.05388199 L1.97341615,2.76090062 C2.09093168,3.16465839 1.85934783,3.58726708 1.45593168,3.70478261 C1.20440994,3.77813665 1.06015528,4.04152174 1.13322981,4.29257764 L1.41049689,5.24428571 Z" id="Shape"></path>
            <path d="M1.64254658,1.53555901 L4.08282609,0.824503106 L4.0097205,0.573198758 C3.89139752,0.167453416 3.4663354,-0.0654658385 3.06083851,0.0529813665 L2.08950311,0.336086957 C1.89444099,0.392919255 1.73031056,0.524751553 1.63282609,0.702888199 C1.53515528,0.880776398 1.51242236,1.09034161 1.56944099,1.28531056 L1.64254658,1.53555901 Z" id="Shape"></path>
            <path d="M14.8846894,7.37118012 L13.546118,6.03232919 C13.5204037,6.00667702 13.4857143,5.99208075 13.4492236,5.99208075 C13.4126087,5.99208075 13.3780435,6.00667702 13.3521429,6.03232919 L11.988913,7.39608696 C11.9631988,7.42164596 11.9284472,7.43624224 11.8920186,7.43624224 C11.8554037,7.43624224 11.8208385,7.42189441 11.7951242,7.39608696 L10.4445031,6.04521739 C10.4186025,6.01965839 10.3840373,6.00506211 10.3473913,6.00506211 C10.3109317,6.00506211 10.2762422,6.01965839 10.2504658,6.04521739 L8.90040373,7.39608696 C8.87447205,7.42164596 8.83990683,7.43624224 8.80332298,7.43624224 C8.76680124,7.43624224 8.73229814,7.42164596 8.7063354,7.39608696 L7.43335404,6.12226708 C7.4073913,6.09661491 7.3728882,6.08201863 7.33624224,6.08201863 C7.29978261,6.08201863 7.26521739,6.09661491 7.23931677,6.12226708 L5.9657764,7.39608696 C5.93987578,7.42164596 5.90534161,7.43624224 5.8686646,7.43624224 C5.83223602,7.43624224 5.79770186,7.42164596 5.77173913,7.39608696 L4.49872671,6.12226708 C4.47279503,6.09661491 4.43829193,6.08201863 4.40164596,6.08201863 C4.36518634,6.08201863 4.33062112,6.09661491 4.3047205,6.12226708 L3.03118012,7.39608696 C3.0052795,7.42164596 2.97068323,7.43624224 2.93406832,7.43624224 C2.8976087,7.43624224 2.86304348,7.42164596 2.83714286,7.39608696 L1.56462733,6.12226708 C1.53872671,6.09661491 1.50416149,6.08201863 1.46754658,6.08201863 C1.4310559,6.08201863 1.39636646,6.09661491 1.37059006,6.12226708 L0.121925466,7.37118012 C0.0438509317,7.44919255 0,7.55518634 0,7.66559006 L0,14.9843168 L0.000465838509,14.9843168 L15.0064286,14.9843168 L15.0064286,7.66559006 C15.0064286,7.55518634 14.9625776,7.44919255 14.8846894,7.37118012 Z" id="Shape"></path>
        </g>
    </g>
</svg>