<?xml version="1.0" encoding="UTF-8"?>
<svg width="7px" height="15px" viewBox="0 0 7 15" version="1.1" xmlns="http://www.w3.org/2000/svg" xmlns:xlink="http://www.w3.org/1999/xlink">
    <!-- Generator: Sketch 44.1 (41455) - http://www.bohemiancoding.com/sketch -->
    <title>lipstick</title>
    <desc>Created with Sketch.</desc>
    <defs></defs>
    <g id="Page-1" stroke="none" stroke-width="1" fill="none" fill-rule="evenodd">
        <g id="lipstick" fill-rule="nonzero" fill="#FFFFFF">
            <path d="M6.54347826,8.5546875 L6.39130435,8.5546875 L6.39130435,6.65039062 C6.39130435,6.40769531 6.18690435,6.2109375 5.93478261,6.2109375 L1.06521739,6.2109375 C0.813095652,6.2109375 0.608695652,6.40769531 0.608695652,6.65039062 L0.608695652,8.5546875 L0.456521739,8.5546875 C0.2044,8.5546875 0,8.75144531 0,8.99414062 L0,14.5605469 C0,14.8032422 0.2044,15 0.456521739,15 L6.54347826,15 C6.7956,15 7,14.8032422 7,14.5605469 L7,8.99414062 C7,8.75144531 6.7956,8.5546875 6.54347826,8.5546875 Z" id="Shape"></path>
            <path d="M4.63387826,0 C4.34870435,0 4.07515652,0.101396484 3.86357391,0.28546875 L1.59584783,2.25878906 C1.35532174,2.46799805 1.2173913,2.76700195 1.2173913,3.07910156 L1.2173913,5.33203125 L5.7826087,5.33203125 L5.7826087,1.10578125 C5.7826087,0.496054687 5.26728696,0 4.63387826,0 Z" id="Shape"></path>
        </g>
    </g>
</svg>