<?xml version="1.0" encoding="UTF-8"?>
<svg width="46px" height="70px" viewBox="0 0 46 70" version="1.1" xmlns="http://www.w3.org/2000/svg" xmlns:xlink="http://www.w3.org/1999/xlink">
    <!-- Generator: Sketch 44.1 (41455) - http://www.bohemiancoding.com/sketch -->
    <title>medal</title>
    <desc>Created with Sketch.</desc>
    <defs></defs>
    <g id="Page-1" stroke="none" stroke-width="1" fill="none" fill-rule="evenodd">
        <g id="medal" fill-rule="nonzero">
            <ellipse id="Oval" fill="#FCD462" cx="22.9657143" cy="21.9920935" rx="22.0818571" ry="21.9920935"></ellipse>
            <ellipse id="Oval" fill="#F6C358" cx="22.9657143" cy="21.9920935" rx="17.449" ry="17.3780691"></ellipse>
            <g id="Group" transform="translate(0.000000, 41.829268)" fill="#E56353">
                <path d="M0.0384285714,23.9444106 L7.43942857,21.6897561 L11.7335714,28.102439 L20.1904286,4.50987805 C16.0055714,4.0395122 12.031,2.50819106 8.60371429,0.0482317073 L0.0384285714,23.9444106 Z" id="Shape"></path>
                <path d="M25.7414286,4.5095935 L34.1978571,28.102439 L38.492,21.6897561 L45.893,23.9444106 L37.3278571,0.0480894309 C33.9008571,2.50762195 29.9268571,4.03922764 25.7414286,4.5095935 Z" id="Shape"></path>
            </g>
            <g id="Group" transform="translate(8.571429, 39.268293)" fill="#D15241">
                <path d="M0.924857143,0.118943089 L0.0321428571,2.60920732 C3.45942857,5.06916667 7.434,6.6004878 11.6188571,7.07085366 L12.4984286,4.61644309 C8.15728571,4.24808943 4.18442857,2.62585366 0.924857143,0.118943089 Z" id="Shape"></path>
                <path d="M27.8637143,0.118943089 C24.6041429,2.62599593 20.6312857,4.24808943 16.2904286,4.61658537 L17.17,7.07071138 C21.3552857,6.60020325 25.3294286,5.06873984 28.7562857,2.60920732 L27.8637143,0.118943089 Z" id="Shape"></path>
            </g>
            <polygon id="Shape" fill="#DC8744" points="22.9658571 9.01705285 27.1982857 17.5579065 36.6622857 18.9276016 29.814 25.575752 31.4305714 34.9631504 22.9658571 30.5310976 14.501 34.9631504 16.1175714 25.575752 9.26942857 18.9276016 18.7334286 17.5579065"></polygon>
        </g>
    </g>
</svg>