<?xml version="1.0" encoding="UTF-8"?>
<svg width="12px" height="15px" viewBox="0 0 12 15" version="1.1" xmlns="http://www.w3.org/2000/svg" xmlns:xlink="http://www.w3.org/1999/xlink">
    <!-- Generator: Sketch 44.1 (41455) - http://www.bohemiancoding.com/sketch -->
    <title>pencil-case</title>
    <desc>Created with Sketch.</desc>
    <defs></defs>
    <g id="Page-1" stroke="none" stroke-width="1" fill="none" fill-rule="evenodd">
        <g id="pencil-case" fill-rule="nonzero" fill="#FFFFFF">
            <path d="M11.9227576,1.76332031 C11.8534545,1.64756836 11.7417576,1.56483398 11.6085758,1.53032227 L11.3590303,1.46581055 C11.2253333,1.43129883 11.085697,1.44855469 10.9662424,1.51555664 C10.8465152,1.58229492 10.7609091,1.6903125 10.7254848,1.81930664 L10.6585152,2.06080078 L10.4084545,1.99605469 L10.5426667,1.51280273 C10.6163636,1.24681641 10.4521515,0.972041016 10.1767576,0.900556641 L8.67824242,0.512314453 C8.40027273,0.441328125 8.11839394,0.599824219 8.04469697,0.865810547 L7.8440303,1.59055664 L7.04084848,4.48831055 C7.023,4.55206055 7.03206061,4.62055664 7.06645455,4.67780273 C7.10084848,4.7353125 7.15748485,4.77729492 7.22366667,4.79431641 L6.75227273,6.49532227 L6.61236364,6.49532227 L6.61236364,2.49530273 C6.61236364,1.79355469 6.36281818,1.10554687 5.90978788,0.558310547 L5.52172727,0.0890625 C5.42321212,-0.0296777344 5.21609091,-0.0296777344 5.11754545,0.0890625 L4.72966667,0.558310547 C4.27636364,1.10557617 4.02657576,1.79355469 4.02657576,2.49530273 L4.02657576,6.49529297 L3.8820303,6.49529297 L2.67909091,2.15481445 L2.54539394,1.67206055 C2.45590909,1.34956055 2.24206061,1.08005859 1.94315152,0.913066406 C1.6439697,0.746308594 1.29539394,0.701806641 0.962090909,0.788320312 C0.628515152,0.874570312 0.349757576,1.08158203 0.177030303,1.37056641 C0.0043030303,1.65958008 -0.0417272727,1.99655273 0.0477272727,2.31905273 L0.181424242,2.80081055 L0.181424242,2.80180664 L1.23593939,6.60606445 C0.899,6.77106445 0.664969697,7.10557617 0.664969697,7.4953125 C0.664969697,7.96004883 0.995969697,8.34805664 1.44072727,8.45982422 L1.44072727,13.9953223 C1.44072727,14.5468359 1.90463636,14.9953125 2.47506061,14.9953125 L8.16393939,14.9953125 C8.73439394,14.9953125 9.19827273,14.5468066 9.19827273,13.9953223 L9.19827273,13.2453223 L4.28515152,13.2453223 C4.14242424,13.2453223 4.02657576,13.133584 4.02657576,12.995332 L4.02657576,9.99533203 C4.02657576,9.85708008 4.14242424,9.7453418 4.28515152,9.7453418 L9.19827273,9.7453418 L9.19827273,8.45985352 C9.64330303,8.34811523 9.9740303,7.96010742 9.9740303,7.4953418 C9.9740303,6.94382812 9.51012121,6.49535156 8.93969697,6.49535156 L8.89393939,6.49535156 L9.22181818,5.3118457 C9.24430303,5.31785156 9.26681818,5.32060547 9.28906061,5.32060547 C9.40309091,5.32060547 9.50781818,5.24686523 9.53860606,5.13509766 L10.2747879,2.47883789 L10.5245758,2.54358398 L9.9890303,4.4755957 C9.95309091,4.60458984 9.97169697,4.73935547 10.0407576,4.85484375 C10.1100606,4.9705957 10.2215152,5.05335938 10.3549394,5.0878418 L10.6047273,5.15258789 C10.6494545,5.16410156 10.6942121,5.16958008 10.7381515,5.16958008 C10.9662121,5.16958008 11.1759394,5.02207031 11.238,4.7990918 L11.9741818,2.1430957 C12.0099091,2.01380859 11.9917879,1.87907227 11.9227576,1.76332031 Z M0.614272727,2.43105469 L0.547030303,2.18956055 C0.493515152,1.99631836 0.521181818,1.79405273 0.624606061,1.62055664 C0.728545455,1.44706055 0.895606061,1.3228125 1.09575758,1.27104492 C1.16272727,1.25378906 1.23072727,1.24529297 1.29824242,1.24529297 C1.43245455,1.24529297 1.56509091,1.27930664 1.68457576,1.34604492 C1.86378788,1.44629883 1.99230303,1.6077832 2.04581818,1.80128906 L2.11278788,2.0427832 L0.614272727,2.43105469 Z M8.93969697,6.99530273 C9.22490909,6.99530273 9.45687879,7.21954102 9.45687879,7.4953125 C9.45687879,7.77082031 9.22493939,7.99532227 8.93969697,7.99532227 L1.69930303,7.99532227 C1.41433333,7.99532227 1.18212121,7.77082031 1.18212121,7.4953125 C1.18212121,7.21957031 1.41433333,6.99530273 1.69930303,6.99530273 L3.68369697,6.99530273 L4.28518182,6.99530273 L6.35387879,6.99530273 L6.95069697,6.99530273 L8.5570303,6.99530273 L8.93969697,6.99530273 L8.93969697,6.99530273 Z M9.1059697,4.76431641 L7.60721212,4.37607422 L8.27669697,1.96133789 L9.77521212,2.34958008 L9.1059697,4.76431641 Z M9.90887879,1.8665625 L8.41063636,1.47832031 L8.54433333,0.995332031 L10.0430909,1.38357422 L9.90887879,1.8665625 Z" id="Shape"></path>
            <path d="M4.54384848,12.7452539 L9.19839394,12.7452539 L9.19839394,12.2452441 L5.83678788,12.2452441 C5.69378788,12.2452441 5.57821212,12.1335059 5.57821212,11.9952539 C5.57821212,11.857002 5.69378788,11.7452637 5.83678788,11.7452637 L9.19839394,11.7452637 L9.19839394,11.2452539 L5.31960606,11.2452539 C5.17660606,11.2452539 5.0610303,11.1335156 5.0610303,10.9952637 C5.0610303,10.8570117 5.17660606,10.7452734 5.31960606,10.7452734 L9.19839394,10.7452734 L9.19839394,10.2452637 L4.54384848,10.2452637 L4.54384848,12.7452539 Z" id="Shape"></path>
        </g>
    </g>
</svg>