<?xml version="1.0" encoding="UTF-8"?>
<svg width="10px" height="15px" viewBox="0 0 10 15" version="1.1" xmlns="http://www.w3.org/2000/svg" xmlns:xlink="http://www.w3.org/1999/xlink">
    <!-- Generator: Sketch 44.1 (41455) - http://www.bohemiancoding.com/sketch -->
    <title>pregnant-woman (1)</title>
    <desc>Created with Sketch.</desc>
    <defs></defs>
    <g id="Page-1" stroke="none" stroke-width="1" fill="none" fill-rule="evenodd">
        <g id="pregnant-woman-(1)" fill-rule="nonzero" fill="#FFFFFF">
            <path d="M8.01897638,14.5726456 C8.03944882,14.6376699 8.03551181,14.7085194 8.00456693,14.7728155 C7.95385827,14.8778155 7.8411811,14.9453883 7.71692913,14.9453883 L0.937952756,14.9453883 C0.845511811,14.9453883 0.757716535,14.9078155 0.697952756,14.8427184 C0.671181102,14.8135922 0.0428346457,14.1115049 0.0428346457,12.5381068 C0.0428346457,11.8848058 0.541102362,11.1434709 1.02291339,10.4265291 C1.39748031,9.86919903 1.78480315,9.29293689 1.79590551,8.93242718 C1.80661417,8.58648058 1.51149606,8.09650485 1.16976378,7.5290534 C0.743464567,6.82121359 0.212992126,5.94036408 0.0818897638,4.95582524 C-0.152125984,3.1973301 0.740472441,0.331092233 0.778582677,0.21 C0.817716535,0.0855582524 0.940944882,0 1.08102362,0 L4.02716535,0 C4.1584252,0 4.27598425,0.0752912621 4.32204724,0.188956311 C4.32795276,0.203446602 4.91511811,1.64330097 5.45614173,2.34378641 C5.70897638,2.67116505 6.43834646,3.02949029 7.45724409,3.32679612 C7.91015748,3.4588835 8.16755906,3.89541262 8.04330709,4.32043689 C7.99669291,4.47961165 7.93622047,4.63987864 7.86338583,4.79686893 C7.71472441,5.11754854 7.4480315,5.41572816 7.2219685,5.6311165 C7.52708661,5.7538835 7.93314961,5.95012136 8.34007874,6.24480583 C9.08669291,6.78546117 9.97677165,7.77007282 9.97677165,9.39036408 C9.97677165,11.4199515 8.65653543,12.7096602 7.73165354,13.3644903 C7.31551181,12.9367718 6.81708661,12.462233 6.35047244,12.1151942 C5.31480315,11.3450243 5.01346457,11.1371359 5.00110236,11.1286893 C4.8615748,11.0327184 4.66433071,11.0595146 4.56047244,11.1885437 C4.45669291,11.3175728 4.48559055,11.4999757 4.62503937,11.5960922 C4.6280315,11.5981311 4.93409449,11.8095874 5.95559055,12.569199 C6.73661417,13.1498301 7.64874016,14.1518447 8.01897638,14.5726456 Z" id="Shape"></path>
        </g>
    </g>
</svg>