<?xml version="1.0" encoding="UTF-8"?>
<svg width="18px" height="18px" viewBox="0 0 18 18" version="1.1" xmlns="http://www.w3.org/2000/svg" xmlns:xlink="http://www.w3.org/1999/xlink">
    <!-- Generator: Sketch 48.1 (47250) - http://www.bohemiancoding.com/sketch -->
    <title>remove</title>
    <desc>Created with Sketch.</desc>
    <defs></defs>
    <g id="Page-1" stroke="none" stroke-width="1" fill="none" fill-rule="evenodd">
        <g id="remove" fill-rule="nonzero">
            <path d="M0,8.98496982 C0,4.02240241 4.02261972,0.000108651911 8.98460765,0.000108651911 C13.9468491,0.000108651911 17.969505,4.02243863 17.969505,8.98496982 C17.969505,13.9468129 13.9468491,17.9693964 8.98460765,17.9693964 C4.02261972,17.9693964 0,13.9468129 0,8.98496982 Z" id="Shape" fill="#E04F5F"></path>
            <path d="M13.891002,7.47112274 L4.07850302,7.47112274 C3.93450302,7.47112274 3.81777465,7.58792354 3.81777465,7.73188732 L3.81777465,10.2376539 C3.81777465,10.3816539 3.93453924,10.4983823 4.07850302,10.4983823 L13.891002,10.4983823 C14.035002,10.4983823 14.1517304,10.3816177 14.1517304,10.2376539 L14.1517304,7.73188732 C14.1517304,7.58792354 14.0349658,7.47112274 13.891002,7.47112274 Z" id="Shape" fill="#FFFFFF"></path>
        </g>
    </g>
</svg>