<?xml version="1.0" encoding="UTF-8"?>
<svg width="16px" height="15px" viewBox="0 0 16 15" version="1.1" xmlns="http://www.w3.org/2000/svg" xmlns:xlink="http://www.w3.org/1999/xlink">
    <!-- Generator: Sketch 44.1 (41455) - http://www.bohemiancoding.com/sketch -->
    <title>running</title>
    <desc>Created with Sketch.</desc>
    <defs></defs>
    <g id="Page-1" stroke="none" stroke-width="1" fill="none" fill-rule="evenodd">
        <g id="running" fill-rule="nonzero" fill="#FFFFFF">
            <path d="M15.7014269,3.12822581 L15.662347,3.09030242 C15.2950643,2.73417339 14.6965146,2.7333871 14.3270175,3.09136089 L12.8895439,4.49984879 C12.8138168,4.57351815 12.6926784,4.57648185 12.6136764,4.5059879 L10.5983002,2.70184476 C10.4025575,2.52644153 10.1478674,2.43006048 9.88107602,2.43006048 L6.88305653,2.43006048 C6.8122885,2.43006048 6.744577,2.45621976 6.69336452,2.50321573 L4.15238986,4.84261089 C3.78014815,5.20382056 3.75454191,5.78606855 4.09568811,6.14059476 C4.27795712,6.33015121 4.52410136,6.43451613 4.78867836,6.43451613 L4.79335673,6.43451613 C5.05575049,6.43318548 5.30794542,6.32507056 5.48223002,6.14032258 L7.27678752,4.2988004 L7.91912671,4.2988004 L3.7311501,8.8372379 L1.14807018,8.8372379 C0.535734893,8.8372379 0.0321871345,9.28118952 0.00162183236,9.84795363 C-0.0146276803,10.1440222 0.0921949318,10.4253931 0.3022846,10.6400202 C0.509317739,10.8517137 0.80034308,10.9729234 1.10128655,10.9729234 L4.95582066,10.9729234 C5.03179727,10.9729234 5.10449903,10.9425 5.15680312,10.8883065 L7.13169591,8.84416331 L8.79245224,10.5281552 L8.29108772,13.6350605 C8.16470955,14.1497782 8.41939961,14.6740827 8.89653021,14.8809677 C9.04355556,14.9450504 9.19965692,14.9770766 9.35494737,14.9770766 C9.52205848,14.9770766 9.68835867,14.9399698 9.8414347,14.8665423 C10.1371384,14.7245262 10.349692,14.4647782 10.4270409,14.1417339 L11.2835867,9.68691532 C11.300117,9.60042339 11.2717349,9.51123992 11.2073294,9.4490625 L8.92132554,7.23541331 L10.7373723,5.47720766 L12.003306,6.7044254 C12.3568343,7.04721774 12.9730058,7.04721774 13.3262534,6.7044254 L15.7014893,4.40159274 C15.8768655,4.23154234 15.9735205,4.00515121 15.9735205,3.76487903 C15.9734581,3.52439516 15.8768031,3.29827621 15.7014269,3.12822581 Z" id="Shape"></path>
            <path d="M12.6647953,3.23095766 C13.5758596,3.23095766 14.3167563,2.51256048 14.3167563,1.62916331 C14.3167563,0.745766129 13.5758596,0.0273689516 12.6647953,0.0273689516 C11.7537622,0.0273689516 11.0128343,0.745766129 11.0128343,1.62916331 C11.0128655,2.51256048 11.7537622,3.23095766 12.6647953,3.23095766 Z" id="Shape"></path>
        </g>
    </g>
</svg>