<?xml version="1.0" encoding="UTF-8"?>
<svg width="12px" height="12px" viewBox="0 0 12 12" version="1.1" xmlns="http://www.w3.org/2000/svg" xmlns:xlink="http://www.w3.org/1999/xlink">
    <!-- Generator: Sketch 48.1 (47250) - http://www.bohemiancoding.com/sketch -->
    <title>share</title>
    <desc>Created with Sketch.</desc>
    <defs></defs>
    <g id="Page-1" stroke="none" stroke-width="1" fill="none" fill-rule="evenodd">
        <g id="share" fill="#000000" fill-rule="nonzero">
            <path d="M4.22656148,5.98772158 C4.22656148,6.02878886 4.2172065,6.06723898 4.21478422,6.10816705 L8.50557773,8.25285383 C8.87292807,7.94177262 9.34293271,7.74762877 9.86219026,7.74762877 C11.0294756,7.74787935 11.9754153,8.69384687 11.9754153,9.86099304 C11.9754153,11.0294478 11.0294478,11.9753875 9.86219026,11.9753875 C8.69390255,11.9753875 7.7489652,11.02942 7.7489652,9.86099304 C7.7489652,9.81889559 7.75832019,9.78133643 7.76065893,9.74054756 L3.46986543,7.59572158 C3.10140139,7.90563341 2.63251044,8.09977726 2.1132529,8.09977726 C0.946051044,8.09977726 2.78422274e-05,7.15486775 2.78422274e-05,5.98772158 C2.78422274e-05,4.81940603 0.946078886,3.87324362 2.1132529,3.87324362 C2.6324826,3.87324362 3.1015406,4.06861253 3.46986543,4.37852436 L7.76065893,2.23369838 C7.75832019,2.19268677 7.7489652,2.15412529 7.7489652,2.11208353 C7.7489652,0.946051044 8.69390255,0 9.86219026,0 C11.0294756,0 11.9754153,0.946051044 11.9754153,2.11208353 C11.9754153,3.28031555 11.0294478,4.22656148 9.86219026,4.22656148 C9.34179118,4.22656148 8.87270534,4.03119258 8.50557773,3.72011137 L4.21478422,5.86610673 C4.21706729,5.90709049 4.22656148,5.94567981 4.22656148,5.98772158 Z" id="ShareThis"></path>
        </g>
    </g>
</svg>