<?xml version="1.0" encoding="UTF-8"?>
<svg width="22px" height="21px" viewBox="0 0 22 21" version="1.1" xmlns="http://www.w3.org/2000/svg" xmlns:xlink="http://www.w3.org/1999/xlink">
    <!-- Generator: Sketch 48.1 (47250) - http://www.bohemiancoding.com/sketch -->
    <title>shopping-cart</title>
    <desc>Created with Sketch.</desc>
    <defs></defs>
    <g id="All-Screens---Android" stroke="none" stroke-width="1" fill="none" fill-rule="evenodd">
        <g id="shopping-cart" fill="#FFFFFF" fill-rule="nonzero">
            <path d="M21.5272727,3.61984615 C21.1318182,3.13061538 20.5318182,2.85830769 19.9090909,2.85830769 L6.39545455,2.85830769 C6.00909091,2.85830769 5.64090909,2.96907692 5.32272727,3.16753846 L4.63181818,0.716769231 C4.51818182,0.315230769 4.15909091,0.0383076923 3.75,0.0383076923 L2.7,0.0383076923 L0.695454545,0.0383076923 C0.313636364,0.0383076923 0,0.352153846 0,0.744461538 L0,0.818307692 C0,1.206 0.309090909,1.52446154 0.695454545,1.52446154 L3.32272727,1.52446154 L4.66363636,6.33830769 L6.50909091,12.9798462 C5.45909091,13.2475385 4.68181818,14.2121538 4.68181818,15.3567692 C4.68181818,16.6536923 5.67727273,17.7198462 6.93636364,17.8029231 C6.83181818,18.1075385 6.78181818,18.4444615 6.80909091,18.7906154 C6.9,19.9629231 7.84090909,20.9090769 8.99545455,20.9875385 C10.3727273,21.0844615 11.5227273,19.9721538 11.5227273,18.5967692 C11.5227273,18.3198462 11.4772727,18.0567692 11.3909091,17.8075385 L14.1545455,17.8075385 C14.0409091,18.1352308 13.9954545,18.4998462 14.0363636,18.8736923 C14.1636364,20.0090769 15.0863636,20.9044615 16.2136364,20.9875385 C17.5909091,21.0844615 18.7454545,19.9767692 18.7454545,18.5967692 C18.7454545,17.2629231 17.6545455,16.1967692 16.3454545,16.1967692 L7.11363636,16.1967692 C6.66363636,16.1967692 6.28181818,15.8413846 6.26363636,15.3890769 C6.24545455,14.9090769 6.62272727,14.5167692 7.09090909,14.5167692 L8.47727273,14.5167692 L15.9909091,14.5167692 L18.1045455,14.5167692 C19.0409091,14.5167692 19.8590909,13.866 20.0863636,12.9429231 L21.9227273,5.43830769 C22.0818182,4.79215385 21.9363636,4.13215385 21.5272727,3.61984615 Z M16.3863636,17.8029231 C16.8136364,17.8029231 17.1636364,18.1583077 17.1636364,18.5921538 C17.1636364,19.026 16.8136364,19.3813846 16.3863636,19.3813846 C15.9590909,19.3813846 15.6090909,19.026 15.6090909,18.5921538 C15.6090909,18.1583077 15.9545455,17.8029231 16.3863636,17.8029231 Z M9.16363636,17.8029231 C9.59090909,17.8029231 9.94090909,18.1583077 9.94090909,18.5921538 C9.94090909,19.026 9.59090909,19.3813846 9.16363636,19.3813846 C8.73636364,19.3813846 8.38636364,19.026 8.38636364,18.5921538 C8.38636364,18.1583077 8.73181818,17.8029231 9.16363636,17.8029231 Z M6.30909091,6.32907692 L5.95454545,5.05984615 C5.9,4.866 5.97727273,4.72292308 6.03181818,4.65369231 C6.08181818,4.58446154 6.2,4.46907692 6.39545455,4.46907692 L7.87727273,4.46907692 L8.28181818,6.33369231 L6.30909091,6.33369231 L6.30909091,6.32907692 Z M6.75454545,7.93523077 L8.62727273,7.93523077 L9,9.66138462 L7.23181818,9.66138462 L6.75454545,7.93523077 Z M8.47727273,12.9013846 C8.27272727,12.9013846 8.09090909,12.7629231 8.03636364,12.5598462 L7.67727273,11.2675385 L9.34545455,11.2675385 L9.7,12.8967692 L8.47727273,12.8967692 L8.47727273,12.9013846 Z M12.4363636,12.9013846 L11.3181818,12.9013846 L10.9636364,11.2721538 L12.4318182,11.2721538 L12.4318182,12.9013846 L12.4363636,12.9013846 Z M12.4363636,9.66138462 L10.6181818,9.66138462 L10.2454545,7.93523077 L12.4363636,7.93523077 L12.4363636,9.66138462 Z M12.4363636,6.32907692 L9.9,6.32907692 L9.49545455,4.46446154 L12.4363636,4.46446154 L12.4363636,6.32907692 Z M15.2727273,12.9013846 L14.0227273,12.9013846 L14.0227273,11.2721538 L15.6090909,11.2721538 L15.2727273,12.9013846 Z M15.9454545,9.66138462 L14.0227273,9.66138462 L14.0227273,7.93523077 L16.3045455,7.93523077 L15.9454545,9.66138462 Z M14.0227273,6.32907692 L14.0227273,4.46446154 L17.0227273,4.46446154 L16.6363636,6.32907692 L14.0227273,6.32907692 Z M18.5545455,12.5506154 C18.5045455,12.7583077 18.3227273,12.906 18.1090909,12.906 L16.8909091,12.906 L17.2318182,11.2767692 L18.8681818,11.2767692 L18.5545455,12.5506154 Z M19.2590909,9.66138462 L17.5636364,9.66138462 L17.9227273,7.93523077 L19.6818182,7.93523077 L19.2590909,9.66138462 Z M20.3863636,5.04138462 L20.0727273,6.32446154 L18.2545455,6.32446154 L18.6409091,4.45984615 L19.9409091,4.45984615 C20.1363636,4.45984615 20.25,4.57061538 20.3,4.63984615 C20.3545455,4.70907692 20.4363636,4.85215385 20.3863636,5.04138462 Z" id="Shape"></path>
        </g>
    </g>
</svg>