<?xml version="1.0" encoding="UTF-8"?>
<svg width="9px" height="15px" viewBox="0 0 9 15" version="1.1" xmlns="http://www.w3.org/2000/svg" xmlns:xlink="http://www.w3.org/1999/xlink">
    <!-- Generator: Sketch 44.1 (41455) - http://www.bohemiancoding.com/sketch -->
    <title>smartphone</title>
    <desc>Created with Sketch.</desc>
    <defs></defs>
    <g id="Page-1" stroke="none" stroke-width="1" fill="none" fill-rule="evenodd">
        <g id="smartphone" fill-rule="nonzero" fill="#FFFFFF">
            <path d="M5.01935294,2.755 L3.98064706,2.755 C3.68311765,2.755 3.44117647,2.9835 3.44117647,3.2645 L3.44117647,4.2455 C3.44117647,4.5265 3.68311765,4.755 3.98064706,4.755 L5.01935294,4.755 C5.31688235,4.755 5.55882353,4.5265 5.55882353,4.2455 L5.55882353,3.2645 C5.55882353,2.9835 5.31688235,2.755 5.01935294,2.755 Z" id="Shape"></path>
            <path d="M2.637,2.755 L1.59829412,2.755 C1.30076471,2.755 1.05882353,2.9835 1.05882353,3.2645 L1.05882353,4.2455 C1.05882353,4.5265 1.30076471,4.755 1.59829412,4.755 L2.637,4.755 C2.93452941,4.755 3.17647059,4.5265 3.17647059,4.2455 L3.17647059,3.2645 C3.17647059,2.9835 2.93452941,2.755 2.637,2.755 Z" id="Shape"></path>
            <path d="M7.40170588,2.755 L6.363,2.755 C6.06547059,2.755 5.82352941,2.9835 5.82352941,3.2645 L5.82352941,4.2455 C5.82352941,4.5265 6.06547059,4.755 6.363,4.755 L7.40170588,4.755 C7.69923529,4.755 7.94117647,4.5265 7.94117647,4.2455 L7.94117647,3.2645 C7.94117647,2.9835 7.69923529,2.755 7.40170588,2.755 Z" id="Shape"></path>
            <path d="M5.01935294,5 L3.98064706,5 C3.68311765,5 3.44117647,5.2285 3.44117647,5.5095 L3.44117647,6.4905 C3.44117647,6.7715 3.68311765,7 3.98064706,7 L5.01935294,7 C5.31688235,7 5.55882353,6.7715 5.55882353,6.4905 L5.55882353,5.5095 C5.55882353,5.2285 5.31688235,5 5.01935294,5 Z" id="Shape"></path>
            <path d="M2.637,5 L1.59829412,5 C1.30076471,5 1.05882353,5.2285 1.05882353,5.5095 L1.05882353,6.4905 C1.05882353,6.7715 1.30076471,7 1.59829412,7 L2.637,7 C2.93452941,7 3.17647059,6.7715 3.17647059,6.4905 L3.17647059,5.5095 C3.17647059,5.2285 2.93452941,5 2.637,5 Z" id="Shape"></path>
            <path d="M7.40170588,5 L6.363,5 C6.06547059,5 5.82352941,5.2285 5.82352941,5.5095 L5.82352941,6.4905 C5.82352941,6.7715 6.06547059,7 6.363,7 L7.40170588,7 C7.69923529,7 7.94117647,6.7715 7.94117647,6.4905 L7.94117647,5.5095 C7.94117647,5.2285 7.69923529,5 7.40170588,5 Z" id="Shape"></path>
            <path d="M5.01935294,7.25 L3.98064706,7.25 C3.68311765,7.25 3.44117647,7.4785 3.44117647,7.7595 L3.44117647,8.7405 C3.44117647,9.0215 3.68311765,9.25 3.98064706,9.25 L5.01935294,9.25 C5.31688235,9.25 5.55882353,9.0215 5.55882353,8.7405 L5.55882353,7.7595 C5.55882353,7.4785 5.31688235,7.25 5.01935294,7.25 Z" id="Shape"></path>
            <path d="M2.637,7.25 L1.59829412,7.25 C1.30076471,7.25 1.05882353,7.4785 1.05882353,7.7595 L1.05882353,8.7405 C1.05882353,9.0215 1.30076471,9.25 1.59829412,9.25 L2.637,9.25 C2.93452941,9.25 3.17647059,9.0215 3.17647059,8.7405 L3.17647059,7.7595 C3.17647059,7.4785 2.93452941,7.25 2.637,7.25 Z" id="Shape"></path>
            <path d="M7.40170588,7.25 L6.363,7.25 C6.06547059,7.25 5.82352941,7.4785 5.82352941,7.7595 L5.82352941,8.7405 C5.82352941,9.0215 6.06547059,9.25 6.363,9.25 L7.40170588,9.25 C7.69923529,9.25 7.94117647,9.0215 7.94117647,8.7405 L7.94117647,7.7595 C7.94117647,7.4785 7.69923529,7.25 7.40170588,7.25 Z" id="Shape"></path>
            <g id="Group">
                <ellipse id="Oval" cx="4.5" cy="13.25" rx="1" ry="1"></ellipse>
                <path d="M7.83397059,0 L1.16602941,0 C0.523058824,0 0,0.49425 0,1.10125 L0,13.8985 C0,14.50575 0.523058824,15 1.16602941,15 L7.83370588,15 C8.47694118,15 9,14.50575 9,13.89875 L9,1.10125 C9,0.49425 8.47694118,0 7.83397059,0 Z M5.29411765,0.75 L5.55882353,0.75 C5.70494118,0.75 5.82352941,0.86175 5.82352941,1 C5.82352941,1.13825 5.70494118,1.25 5.55882353,1.25 L5.29411765,1.25 C5.148,1.25 5.02941176,1.13825 5.02941176,1 C5.02941176,0.86175 5.148,0.75 5.29411765,0.75 Z M3.44117647,0.75 L4.5,0.75 C4.64611765,0.75 4.76470588,0.86175 4.76470588,1 C4.76470588,1.13825 4.64611765,1.25 4.5,1.25 L3.44117647,1.25 C3.29505882,1.25 3.17647059,1.13825 3.17647059,1 C3.17647059,0.86175 3.29505882,0.75 3.44117647,0.75 Z M4.5,14.25 C3.91605882,14.25 3.44117647,13.8015 3.44117647,13.25 C3.44117647,12.6985 3.91605882,12.25 4.5,12.25 C5.08394118,12.25 5.55882353,12.6985 5.55882353,13.25 C5.55882353,13.8015 5.08394118,14.25 4.5,14.25 Z M8.47058824,11.5 L0.529411765,11.5 L0.529411765,2 L8.47058824,2 L8.47058824,11.5 Z" id="Shape"></path>
            </g>
        </g>
    </g>
</svg>