<?xml version="1.0" encoding="UTF-8"?>
<svg width="19px" height="12px" viewBox="0 0 19 12" version="1.1" xmlns="http://www.w3.org/2000/svg" xmlns:xlink="http://www.w3.org/1999/xlink">
    <!-- Generator: Sketch 48.1 (47250) - http://www.bohemiancoding.com/sketch -->
    <title>view</title>
    <desc>Created with Sketch.</desc>
    <defs></defs>
    <g id="Page-1" stroke="none" stroke-width="1" fill="none" fill-rule="evenodd">
        <g id="view" fill="#000000" fill-rule="nonzero">
            <path d="M9.16868852,0.0103278689 C5.12409836,0.0103278689 1.63819672,2.39459016 0.0368852459,5.8352459 C-0.012295082,5.9395082 -0.012295082,6.06147541 0.0368852459,6.16770492 C1.63819672,9.60834098 5.12411803,11.992623 9.16868852,11.992623 C13.213259,11.992623 16.6991803,9.60836066 18.3004918,6.16770492 C18.3496721,6.06344262 18.3496721,5.94147541 18.3004918,5.8352459 C16.6991803,2.39459016 13.2132787,0.0103278689 9.16868852,0.0103278689 Z M9.16868852,10.1355934 C6.8847541,10.1355934 5.03557377,8.28442623 5.03557377,6.00245902 C5.03557377,3.71852459 6.88672131,1.86934426 9.16868852,1.86934426 C11.452623,1.86934426 13.3018033,3.7204918 13.3018033,6.00245902 C13.3018033,8.28442623 11.4506557,10.1355934 9.16868852,10.1355934 Z" id="Shape"></path>
            <circle id="Oval" cx="9.16868852" cy="6.0004918" r="2.64590164"></circle>
        </g>
    </g>
</svg>